<svg xmlns="http://www.w3.org/2000/svg" viewBox="0 0 960 320">
  <rect width="960" height="320" rx="36" fill="#ffffff"/>
  <g transform="translate(28 28)">
    <rect width="264" height="264" rx="32" fill="#ffffff"/>
    <g font-family="'Trebuchet MS', 'Arial Rounded MT Bold', sans-serif" font-size="34" font-weight="700" fill="#2d63cf">
      <text x="18" y="138">A</text>
      <text x="22" y="84" transform="rotate(-18 22 84)">B</text>
      <text x="58" y="40" transform="rotate(-14 58 40)">C</text>
      <text x="116" y="22">D</text>
      <text x="171" y="39" transform="rotate(12 171 39)">E</text>
      <text x="208" y="81" transform="rotate(18 208 81)">F</text>
      <text x="222" y="136">G</text>
    </g>
    <g>
      <ellipse cx="132" cy="112" rx="68" ry="58" fill="#000000"/>
      <path d="M73 90l20-20 10 28z" fill="#000000"/>
      <path d="M191 90l-20-20-10 28z" fill="#000000"/>
      <ellipse cx="105" cy="116" rx="24" ry="29" fill="#ffffff"/>
      <ellipse cx="159" cy="116" rx="24" ry="29" fill="#ffffff"/>
      <circle cx="106" cy="121" r="10" fill="#000000"/>
      <circle cx="158" cy="121" r="10" fill="#000000"/>
      <path d="M124 147l8 10 8-10z" fill="#f3b35a"/>
    </g>
    <g>
      <path d="M36 178c0-18 16-31 34-31h54v72H70c-18 0-34-15-34-41z" fill="#ffffff" stroke="#1d1d1d" stroke-width="4" stroke-linejoin="round"/>
      <path d="M228 178c0-18-16-31-34-31h-54v72h54c18 0 34-15 34-41z" fill="#ffffff" stroke="#1d1d1d" stroke-width="4" stroke-linejoin="round"/>
      <path d="M132 145v77" stroke="#1d1d1d" stroke-width="4"/>
      <path d="M52 160c18 2 37 7 63 14" stroke="#8f949b" stroke-width="3" opacity=".85"/>
      <path d="M147 174c21-6 39-10 64-10" stroke="#8f949b" stroke-width="3" opacity=".85"/>
      <text x="53" y="184" font-family="'Trebuchet MS', sans-serif" font-size="28" fill="#66cdb7" transform="rotate(-4 53 184)">English</text>
      <text x="164" y="187" font-family="'Trebuchet MS', sans-serif" font-size="28" fill="#9fe5cf" transform="rotate(5 164 187)">book</text>
    </g>
    <g fill="#cfcfcf" stroke="#4c4c4c" stroke-width="4">
      <path d="M20 199c4-15 14-25 28-23 6 10 4 24-3 34-10 6-18-2-25-11z"/>
      <path d="M244 199c-4-15-14-25-28-23-6 10-4 24 3 34 10 6 18-2 25-11z"/>
    </g>
  </g>
  <g fill="#18344c" font-family="'Trebuchet MS', 'Segoe UI', sans-serif">
    <text x="332" y="122" font-size="58" font-weight="700">Snowy Enligsh</text>
    <text x="332" y="174" font-size="28">A playful English study space with drills, review, and word lookup.</text>
    <text x="332" y="216" font-size="24" fill="#53718b">Practice calmly, collect mistakes, and keep moving forward one page at a time.</text>
  </g>
</svg>
